HIERARCHY
ROOT Hips
{
	OFFSET -0.001795 -0.223333 0.028219
	CHANNELS 6 Xposition Yposition Zposition Zrotation Yrotation Xrotation 
	JOINT LeftUpLeg
	{
		OFFSET 0.069520 -0.091406 -0.006815
		CHANNELS 3 Zrotation Yrotation Xrotation
		JOINT LeftLeg
		{
			OFFSET 0.034277 -0.375199 -0.004496
			CHANNELS 3 Zrotation Yrotation Xrotation
			JOINT LeftFoot
			{
				OFFSET -0.013596 -0.397961 -0.043693
				CHANNELS 3 Zrotation Yrotation Xrotation
				JOINT LeftToe
				{
					OFFSET 0.026358 -0.055791 0.119288
					CHANNELS 3 Zrotation Yrotation Xrotation
					End Site
					{
						OFFSET 0.000000 0.000000 0.000000
					}
				}
			}
		}
	}
	JOINT RightUpLeg
	{
		OFFSET -0.067670 -0.090522 -0.004320
		CHANNELS 3 Zrotation Yrotation Xrotation
		JOINT RightLeg
		{
			OFFSET -0.038290 -0.382569 -0.008850
			CHANNELS 3 Zrotation Yrotation Xrotation
			JOINT RightFoot
			{
				OFFSET 0.015774 -0.398415 -0.042312
				CHANNELS 3 Zrotation Yrotation Xrotation
				JOINT RightToe
				{
					OFFSET -0.025372 -0.048144 0.123348
					CHANNELS 3 Zrotation Yrotation Xrotation
					End Site
					{
						OFFSET 0.000000 0.000000 0.000000
					}
				}
			}
		}
	}
	JOINT Spine
	{
		OFFSET -0.002533 0.108963 -0.026696
		CHANNELS 3 Zrotation Yrotation Xrotation
		JOINT Spine1
		{
			OFFSET 0.005487 0.135180 0.001092
			CHANNELS 3 Zrotation Yrotation Xrotation
			JOINT Spine2
			{
				OFFSET 0.001457 0.052922 0.025425
				CHANNELS 3 Zrotation Yrotation Xrotation
				JOINT Neck
				{
					OFFSET -0.002778 0.213870 -0.042857
					CHANNELS 3 Zrotation Yrotation Xrotation
					JOINT Head
					{
						OFFSET 0.005152 0.064970 0.051349
						CHANNELS 3 Zrotation Yrotation Xrotation
						End Site
						{
							OFFSET 0.000000 0.000000 0.000000
						}
					}
				}
				JOINT LeftShoulder
				{
					OFFSET 0.078845 0.121749 -0.034090
					CHANNELS 3 Zrotation Yrotation Xrotation
					JOINT LeftArm
					{
						OFFSET 0.090977 0.030469 -0.008868
						CHANNELS 3 Zrotation Yrotation Xrotation
						JOINT LeftForeArm
						{
							OFFSET 0.259612 -0.012772 -0.027456
							CHANNELS 3 Zrotation Yrotation Xrotation
							JOINT LeftHand
							{
								OFFSET 0.249234 0.008986 -0.001171
								CHANNELS 3 Zrotation Yrotation Xrotation
								End Site
								{
									OFFSET 0.000000 0.000000 0.000000
								}
							}
						}
					}
				}
				JOINT RightShoulder
				{
					OFFSET -0.081759 0.118833 -0.038615
					CHANNELS 3 Zrotation Yrotation Xrotation
					JOINT RightArm
					{
						OFFSET -0.096012 0.032551 -0.009143
						CHANNELS 3 Zrotation Yrotation Xrotation
						JOINT RightForeArm
						{
							OFFSET -0.253742 -0.013329 -0.021401
							CHANNELS 3 Zrotation Yrotation Xrotation
							JOINT RightHand
							{
								OFFSET -0.255298 0.007772 -0.005559
								CHANNELS 3 Zrotation Yrotation Xrotation
								End Site
								{
									OFFSET 0.000000 0.000000 0.000000
								}
							}
						}
					}
				}
			}
		}
	}
}
MOTION
Frames: 13
Frame Time: 0.050000
0.539407 0.957447 1.377618 -5.356600 8.582887 2.879493 14.864585 -0.240416 -13.999939 -4.811895 0.414560 8.452850 1.947076 8.809497 12.278884 0.000000 0.000000 0.000000 -6.700649 0.455577 -9.621503 2.478936 -0.259636 5.465436 -5.281552 -14.170398 18.540136 0.000000 0.000000 0.000000 -12.709785 1.296484 25.127569 0.407055 0.574860 -19.665732 -3.816143 6.173079 25.258492 -2.744897 4.293425 -13.427094 0.000000 0.000000 0.000000 -24.082990 -23.040178 8.417074 -43.512668 -43.513240 9.540858 3.818371 -33.022842 -0.091943 0.000000 0.000000 0.000000 -5.349832 19.923112 5.930796 28.434036 29.587249 2.864230 2.380221 80.122945 9.528473 0.000000 0.000000 0.000000 
0.540219 0.957295 1.378709 -5.437917 8.682678 3.058584 15.241227 -0.220175 -14.343223 -5.143943 0.465187 8.574097 2.074805 9.091000 12.529476 0.000000 0.000000 0.000000 -6.515787 0.472125 -9.605787 2.296762 -0.229501 5.306511 -5.163435 -13.964101 18.677411 0.000000 0.000000 0.000000 -12.857102 1.328020 25.109610 0.414409 0.573099 -19.557398 -3.896386 6.201142 25.278013 -2.407386 4.018082 -12.799253 0.000000 0.000000 0.000000 -24.517044 -23.037168 8.404226 -43.057174 -43.258193 9.337262 3.859375 -33.323723 -0.109842 0.000000 0.000000 0.000000 -4.878212 19.816692 6.025805 28.549897 29.496070 2.827397 4.098624 80.351992 11.068828 0.000000 0.000000 0.000000 
0.541205 0.957267 1.379551 -5.672071 8.791603 3.212941 15.578813 -0.199257 -14.785395 -5.274530 0.481041 9.273275 2.302486 9.365329 12.217815 0.000000 0.000000 0.000000 -6.295299 0.497762 -9.767503 2.297304 -0.232649 4.944040 -5.253852 -14.112507 19.108472 0.000000 0.000000 0.000000 -13.012456 1.362315 25.236888 0.431802 0.561439 -19.164924 -3.871967 5.938288 24.888838 -2.385555 3.894093 -11.989200 0.000000 0.000000 0.000000 -24.159650 -22.831050 8.332307 -42.958335 -43.563562 9.420481 3.874534 -33.164727 -0.106393 0.000000 0.000000 0.000000 -4.618490 19.810038 6.109826 28.618219 29.686517 2.876961 4.227420 80.177914 11.068553 0.000000 0.000000 0.000000 
0.542232 0.957317 1.380203 -5.781164 8.854574 3.336052 15.852570 -0.185055 -14.931367 -5.508726 0.518464 9.413080 2.499755 9.763958 12.523385 0.000000 0.000000 0.000000 -6.195878 0.515502 -9.980355 2.246882 -0.224219 4.976449 -5.267121 -14.128481 19.226115 0.000000 0.000000 0.000000 -13.012207 1.362904 25.260515 0.520133 0.537034 -19.144704 -3.956245 5.850344 25.015617 -2.110491 3.607548 -11.033631 0.000000 0.000000 0.000000 -24.126927 -22.817821 8.357828 -42.852076 -43.582772 9.367233 4.180672 -33.257853 -0.189749 0.000000 0.000000 0.000000 -4.479707 19.621517 6.085511 28.814062 30.024395 2.977179 6.779415 80.432477 13.269425 0.000000 0.000000 0.000000 
0.543324 0.957534 1.380832 -5.810857 8.578930 3.510346 15.953848 -0.168240 -14.877579 -5.654378 0.550028 9.262805 2.683675 10.070270 12.710751 0.000000 0.000000 0.000000 -6.115230 0.539864 -10.220152 2.360612 -0.239697 5.074964 -5.311002 -14.251934 19.390182 0.000000 0.000000 0.000000 -13.138551 1.419543 25.231012 0.576563 0.510889 -18.942542 -3.977933 5.896651 24.795261 -1.942966 3.470935 -11.116004 0.000000 0.000000 0.000000 -23.613409 -22.710804 8.309875 -43.000284 -44.197496 9.619942 4.454741 -33.039638 -0.261481 0.000000 0.000000 0.000000 -4.486310 19.495169 6.053530 28.965266 30.878984 3.227029 7.522585 81.486908 14.194026 0.000000 0.000000 0.000000 
0.544266 0.957781 1.381473 -5.724685 8.489204 3.531205 15.884620 -0.177508 -14.565118 -5.504151 0.527811 9.039379 2.460973 9.802345 13.032111 0.000000 0.000000 0.000000 -6.106292 0.541424 -10.182767 2.192658 -0.210457 5.008797 -5.307158 -14.266583 19.542028 0.000000 0.000000 0.000000 -13.212777 1.440104 25.066678 0.598085 0.493686 -18.524666 -4.058799 5.847568 24.669510 -1.772174 3.313535 -10.925699 0.000000 0.000000 0.000000 -23.391688 -22.883686 8.439535 -42.679564 -44.547130 9.641021 4.966459 -33.103213 -0.409526 0.000000 0.000000 0.000000 -4.627411 19.562501 6.041616 29.023447 31.577898 3.434876 8.381692 82.381136 15.148854 0.000000 0.000000 0.000000 
0.545025 0.958131 1.382014 -5.571427 8.400533 3.525356 15.805807 -0.193106 -14.045025 -5.465424 0.524153 8.492323 2.341760 9.680137 13.303690 0.000000 0.000000 0.000000 -6.259059 0.527963 -10.114668 2.307524 -0.228678 5.056249 -5.324369 -14.319411 19.702418 0.000000 0.000000 0.000000 -13.253368 1.450388 24.875263 0.526790 0.504568 -18.220422 -4.095239 6.077905 24.559365 -1.547938 3.158868 -10.845325 0.000000 0.000000 0.000000 -23.118597 -23.018611 8.439441 -42.678104 -45.142039 9.870193 5.115557 -32.753766 -0.456719 0.000000 0.000000 0.000000 -4.793488 19.570858 6.004391 29.166537 32.164501 3.655589 9.251655 83.563427 16.356556 0.000000 0.000000 0.000000 
0.545501 0.958298 1.382292 -5.417487 8.230385 3.584914 15.572334 -0.202277 -13.914640 -5.317990 0.504483 8.421508 1.991259 9.104731 13.247866 0.000000 0.000000 0.000000 -6.457952 0.511699 -9.990934 2.386780 -0.240720 4.977756 -5.478427 -14.617614 20.162096 0.000000 0.000000 0.000000 -13.331662 1.475877 24.630131 0.359560 0.539543 -17.798026 -4.068145 6.092225 24.376725 -1.245429 2.960409 -11.292443 0.000000 0.000000 0.000000 -22.527147 -22.918200 8.370151 -42.870265 -45.938964 10.219143 5.207296 -32.306716 -0.472884 0.000000 0.000000 0.000000 -5.448518 19.458778 5.810249 29.726546 32.935172 4.045237 12.719235 84.773983 19.942651 0.000000 0.000000 0.000000 
0.545887 0.958538 1.382210 -5.180260 8.313365 3.418101 15.366145 -0.223238 -13.570071 -5.160690 0.477617 8.367391 1.730272 8.679893 13.146219 0.000000 0.000000 0.000000 -6.738676 0.477287 -9.811651 2.417917 -0.245893 5.190159 -5.539925 -14.708501 20.236203 0.000000 0.000000 0.000000 -13.434537 1.490285 24.758193 0.336515 0.549724 -17.888900 -4.167809 6.137160 24.589697 -1.141559 2.922927 -11.554407 0.000000 0.000000 0.000000 -21.993908 -23.215399 8.491567 -42.617886 -46.414777 10.274561 5.479642 -31.914568 -0.549409 0.000000 0.000000 0.000000 -6.194532 19.510082 5.627394 30.318858 33.553688 4.410985 12.939075 85.576756 20.524466 0.000000 0.000000 0.000000 
0.546494 0.958704 1.381705 -4.958764 8.257322 3.310362 15.101087 -0.237399 -13.330166 -5.007866 0.454881 8.268229 1.516457 8.391729 13.306824 0.000000 0.000000 0.000000 -7.001611 0.453890 -9.800078 2.518770 -0.262472 5.229480 -5.783350 -15.118571 20.554797 0.000000 0.000000 0.000000 -13.555815 1.519373 24.793457 0.224740 0.576380 -17.669478 -4.154861 6.047314 24.546189 -1.421877 3.114736 -11.584165 0.000000 0.000000 0.000000 -21.783095 -23.293580 8.565004 -41.993740 -46.740238 10.178296 5.401496 -31.370020 -0.514139 0.000000 0.000000 0.000000 -6.896286 19.663144 5.497761 30.386347 33.944235 4.582281 6.438257 85.834671 14.531043 0.000000 0.000000 0.000000 
0.547416 0.958762 1.380966 -4.784373 8.072199 3.141529 14.815023 -0.243723 -13.063488 -4.957134 0.450900 8.176832 1.298851 8.030436 13.291957 0.000000 0.000000 0.000000 -7.156756 0.436090 -9.620577 2.487915 -0.255559 5.166991 -6.014842 -15.521918 20.733624 0.000000 0.000000 0.000000 -13.698227 1.560773 24.844011 0.005331 0.637553 -17.681243 -4.116265 6.083637 24.725735 -1.641209 3.299146 -11.857932 0.000000 0.000000 0.000000 -21.683850 -23.578567 8.752386 -40.999502 -46.961352 9.899192 5.322854 -30.587595 -0.475932 0.000000 0.000000 0.000000 -7.485532 19.595415 5.320364 30.242851 34.180238 4.648390 -5.063830 86.097075 3.839239 0.000000 0.000000 0.000000 
0.548774 0.958926 1.379881 -4.684070 7.931782 3.132591 14.584129 -0.251861 -12.900279 -4.969885 0.457185 7.822416 1.189641 7.954647 13.642021 0.000000 0.000000 0.000000 -7.302796 0.424261 -9.519853 2.504169 -0.257809 4.971986 -6.357051 -16.088701 21.041523 0.000000 0.000000 0.000000 -13.763118 1.580087 24.693782 -0.043232 0.641326 -17.295453 -4.203315 6.063493 24.531386 -2.268185 3.749636 -11.975515 0.000000 0.000000 0.000000 -22.008082 -23.839991 8.941698 -39.673237 -46.949426 9.486038 5.026366 -29.861146 -0.384436 0.000000 0.000000 0.000000 -7.826138 19.621023 5.250808 29.747970 34.344247 4.598854 -19.936085 85.802470 -10.008858 0.000000 0.000000 0.000000 
0.550295 0.958992 1.378648 -4.693844 7.860370 3.132827 14.326654 -0.264182 -12.815603 -4.912308 0.450732 7.486302 1.071212 7.799906 13.750647 0.000000 0.000000 0.000000 -7.323723 0.424856 -9.549029 2.500379 -0.256729 4.921655 -6.506355 -16.331814 21.015904 0.000000 0.000000 0.000000 -13.821536 1.601545 24.772869 -0.134542 0.668053 -17.341507 -4.225358 5.876390 24.572432 -2.782264 4.088892 -11.852095 0.000000 0.000000 0.000000 -22.219667 -24.014021 9.135060 -38.658397 -47.054066 9.177997 4.742877 -29.036438 -0.288690 0.000000 0.000000 0.000000 -7.754525 19.326032 5.185946 29.009066 34.273674 4.367374 -26.100337 85.577639 -15.778860 0.000000 0.000000 0.000000 
